<mxfile host="app.diagrams.net" agent="Mozilla/5.0 (Windows NT 10.0; Win64; x64) AppleWebKit/537.36 (KHTML, like Gecko) Chrome/131.0.0.0 Safari/537.36" version="26.0.1">
  <diagram id="C5RBs43oDa-KdzZeNtuy" name="Page-1">
    <mxGraphModel grid="1" page="1" gridSize="10" guides="1" tooltips="1" connect="1" arrows="1" fold="1" pageScale="1" pageWidth="827" pageHeight="1169" math="0" shadow="0">
      <root>
        <mxCell id="WIyWlLk6GJQsqaUBKTNV-0" />
        <mxCell id="WIyWlLk6GJQsqaUBKTNV-1" parent="WIyWlLk6GJQsqaUBKTNV-0" />
        <mxCell id="j3s3mRyFmVoYlKtFoy2Y-5" value="Applicataion starts" style="rounded=1;whiteSpace=wrap;html=1;" vertex="1" parent="WIyWlLk6GJQsqaUBKTNV-1">
          <mxGeometry x="60" y="100" width="120" height="60" as="geometry" />
        </mxCell>
        <mxCell id="j3s3mRyFmVoYlKtFoy2Y-6" value="" style="endArrow=classic;html=1;rounded=0;exitX=0.5;exitY=1;exitDx=0;exitDy=0;" edge="1" parent="WIyWlLk6GJQsqaUBKTNV-1" source="j3s3mRyFmVoYlKtFoy2Y-5" target="j3s3mRyFmVoYlKtFoy2Y-7">
          <mxGeometry width="50" height="50" relative="1" as="geometry">
            <mxPoint x="110" y="600" as="sourcePoint" />
            <mxPoint x="120" y="210" as="targetPoint" />
          </mxGeometry>
        </mxCell>
        <mxCell id="j3s3mRyFmVoYlKtFoy2Y-7" value="Initialize Controller" style="rounded=0;whiteSpace=wrap;html=1;" vertex="1" parent="WIyWlLk6GJQsqaUBKTNV-1">
          <mxGeometry x="60" y="200" width="120" height="60" as="geometry" />
        </mxCell>
        <mxCell id="j3s3mRyFmVoYlKtFoy2Y-8" value="" style="endArrow=classic;html=1;rounded=0;exitX=0.5;exitY=1;exitDx=0;exitDy=0;" edge="1" parent="WIyWlLk6GJQsqaUBKTNV-1" source="j3s3mRyFmVoYlKtFoy2Y-7" target="j3s3mRyFmVoYlKtFoy2Y-9">
          <mxGeometry width="50" height="50" relative="1" as="geometry">
            <mxPoint x="110" y="600" as="sourcePoint" />
            <mxPoint x="120" y="300" as="targetPoint" />
          </mxGeometry>
        </mxCell>
        <mxCell id="j3s3mRyFmVoYlKtFoy2Y-9" value="Load Task from LocalStorage" style="rounded=0;whiteSpace=wrap;html=1;" vertex="1" parent="WIyWlLk6GJQsqaUBKTNV-1">
          <mxGeometry x="60" y="280" width="120" height="60" as="geometry" />
        </mxCell>
        <mxCell id="j3s3mRyFmVoYlKtFoy2Y-10" value="" style="endArrow=classic;html=1;rounded=0;exitX=0.5;exitY=1;exitDx=0;exitDy=0;" edge="1" parent="WIyWlLk6GJQsqaUBKTNV-1" source="j3s3mRyFmVoYlKtFoy2Y-9" target="j3s3mRyFmVoYlKtFoy2Y-11">
          <mxGeometry width="50" height="50" relative="1" as="geometry">
            <mxPoint x="110" y="600" as="sourcePoint" />
            <mxPoint x="120" y="370" as="targetPoint" />
          </mxGeometry>
        </mxCell>
        <mxCell id="j3s3mRyFmVoYlKtFoy2Y-11" value="Setup Dynamic Form &amp;amp; UI" style="rounded=0;whiteSpace=wrap;html=1;" vertex="1" parent="WIyWlLk6GJQsqaUBKTNV-1">
          <mxGeometry x="60" y="370" width="120" height="60" as="geometry" />
        </mxCell>
        <mxCell id="j3s3mRyFmVoYlKtFoy2Y-12" value="" style="endArrow=classic;html=1;rounded=0;exitX=0.5;exitY=1;exitDx=0;exitDy=0;" edge="1" parent="WIyWlLk6GJQsqaUBKTNV-1" source="j3s3mRyFmVoYlKtFoy2Y-11" target="j3s3mRyFmVoYlKtFoy2Y-13">
          <mxGeometry width="50" height="50" relative="1" as="geometry">
            <mxPoint x="110" y="600" as="sourcePoint" />
            <mxPoint x="120" y="460" as="targetPoint" />
          </mxGeometry>
        </mxCell>
        <mxCell id="j3s3mRyFmVoYlKtFoy2Y-13" value="Render" style="rounded=0;whiteSpace=wrap;html=1;" vertex="1" parent="WIyWlLk6GJQsqaUBKTNV-1">
          <mxGeometry x="60" y="460" width="120" height="30" as="geometry" />
        </mxCell>
        <mxCell id="j3s3mRyFmVoYlKtFoy2Y-14" value="Create Task Button" style="rounded=0;whiteSpace=wrap;html=1;" vertex="1" parent="WIyWlLk6GJQsqaUBKTNV-1">
          <mxGeometry x="240" y="100" width="120" height="60" as="geometry" />
        </mxCell>
        <mxCell id="j3s3mRyFmVoYlKtFoy2Y-15" value="" style="endArrow=classic;html=1;rounded=0;exitX=0.5;exitY=1;exitDx=0;exitDy=0;" edge="1" parent="WIyWlLk6GJQsqaUBKTNV-1" source="j3s3mRyFmVoYlKtFoy2Y-14" target="j3s3mRyFmVoYlKtFoy2Y-16">
          <mxGeometry width="50" height="50" relative="1" as="geometry">
            <mxPoint x="300" y="170" as="sourcePoint" />
            <mxPoint x="300" y="200" as="targetPoint" />
          </mxGeometry>
        </mxCell>
        <mxCell id="j3s3mRyFmVoYlKtFoy2Y-18" style="edgeStyle=orthogonalEdgeStyle;rounded=0;orthogonalLoop=1;jettySize=auto;html=1;entryX=0.5;entryY=0;entryDx=0;entryDy=0;" edge="1" parent="WIyWlLk6GJQsqaUBKTNV-1" source="j3s3mRyFmVoYlKtFoy2Y-16" target="j3s3mRyFmVoYlKtFoy2Y-20">
          <mxGeometry relative="1" as="geometry">
            <mxPoint x="300" y="300" as="targetPoint" />
          </mxGeometry>
        </mxCell>
        <mxCell id="j3s3mRyFmVoYlKtFoy2Y-16" value="Open Create Modal" style="rounded=0;whiteSpace=wrap;html=1;" vertex="1" parent="WIyWlLk6GJQsqaUBKTNV-1">
          <mxGeometry x="240" y="200" width="120" height="60" as="geometry" />
        </mxCell>
        <mxCell id="j3s3mRyFmVoYlKtFoy2Y-20" value="User Input Form" style="rounded=0;whiteSpace=wrap;html=1;" vertex="1" parent="WIyWlLk6GJQsqaUBKTNV-1">
          <mxGeometry x="240" y="290" width="120" height="60" as="geometry" />
        </mxCell>
        <mxCell id="j3s3mRyFmVoYlKtFoy2Y-21" value="" style="endArrow=classic;html=1;rounded=0;exitX=0.5;exitY=1;exitDx=0;exitDy=0;" edge="1" parent="WIyWlLk6GJQsqaUBKTNV-1" source="j3s3mRyFmVoYlKtFoy2Y-20" target="j3s3mRyFmVoYlKtFoy2Y-22">
          <mxGeometry width="50" height="50" relative="1" as="geometry">
            <mxPoint x="110" y="600" as="sourcePoint" />
            <mxPoint x="300" y="390" as="targetPoint" />
          </mxGeometry>
        </mxCell>
        <mxCell id="j3s3mRyFmVoYlKtFoy2Y-22" value="Validate Input" style="rhombus;whiteSpace=wrap;html=1;" vertex="1" parent="WIyWlLk6GJQsqaUBKTNV-1">
          <mxGeometry x="245" y="390" width="110" height="110" as="geometry" />
        </mxCell>
        <mxCell id="j3s3mRyFmVoYlKtFoy2Y-23" value="" style="endArrow=classic;html=1;rounded=0;exitX=1;exitY=0.5;exitDx=0;exitDy=0;entryX=0;entryY=0.5;entryDx=0;entryDy=0;" edge="1" parent="WIyWlLk6GJQsqaUBKTNV-1" source="j3s3mRyFmVoYlKtFoy2Y-22" target="j3s3mRyFmVoYlKtFoy2Y-25">
          <mxGeometry width="50" height="50" relative="1" as="geometry">
            <mxPoint x="110" y="600" as="sourcePoint" />
            <mxPoint x="430" y="445" as="targetPoint" />
          </mxGeometry>
        </mxCell>
        <mxCell id="j3s3mRyFmVoYlKtFoy2Y-24" value="Invalid" style="edgeLabel;html=1;align=center;verticalAlign=middle;resizable=0;points=[];" connectable="0" vertex="1" parent="j3s3mRyFmVoYlKtFoy2Y-23">
          <mxGeometry x="-0.04" y="1" relative="1" as="geometry">
            <mxPoint as="offset" />
          </mxGeometry>
        </mxCell>
        <mxCell id="j3s3mRyFmVoYlKtFoy2Y-25" value="Show Error Message" style="rounded=0;whiteSpace=wrap;html=1;" vertex="1" parent="WIyWlLk6GJQsqaUBKTNV-1">
          <mxGeometry x="440" y="415" width="120" height="60" as="geometry" />
        </mxCell>
        <mxCell id="j3s3mRyFmVoYlKtFoy2Y-27" value="" style="endArrow=classic;html=1;rounded=0;exitX=0.5;exitY=0;exitDx=0;exitDy=0;entryX=1;entryY=0.5;entryDx=0;entryDy=0;" edge="1" parent="WIyWlLk6GJQsqaUBKTNV-1" source="j3s3mRyFmVoYlKtFoy2Y-25" target="j3s3mRyFmVoYlKtFoy2Y-20">
          <mxGeometry width="50" height="50" relative="1" as="geometry">
            <mxPoint x="110" y="600" as="sourcePoint" />
            <mxPoint x="500" y="320" as="targetPoint" />
            <Array as="points">
              <mxPoint x="500" y="320" />
            </Array>
          </mxGeometry>
        </mxCell>
        <mxCell id="j3s3mRyFmVoYlKtFoy2Y-28" value="" style="endArrow=classic;html=1;rounded=0;exitX=0.5;exitY=1;exitDx=0;exitDy=0;" edge="1" parent="WIyWlLk6GJQsqaUBKTNV-1" source="j3s3mRyFmVoYlKtFoy2Y-22" target="j3s3mRyFmVoYlKtFoy2Y-29">
          <mxGeometry width="50" height="50" relative="1" as="geometry">
            <mxPoint x="110" y="600" as="sourcePoint" />
            <mxPoint x="300" y="570" as="targetPoint" />
          </mxGeometry>
        </mxCell>
        <mxCell id="j3s3mRyFmVoYlKtFoy2Y-30" value="Valid" style="edgeLabel;html=1;align=center;verticalAlign=middle;resizable=0;points=[];" connectable="0" vertex="1" parent="j3s3mRyFmVoYlKtFoy2Y-28">
          <mxGeometry x="-0.2" y="3" relative="1" as="geometry">
            <mxPoint as="offset" />
          </mxGeometry>
        </mxCell>
        <mxCell id="j3s3mRyFmVoYlKtFoy2Y-29" value="Create Task Model" style="rounded=0;whiteSpace=wrap;html=1;" vertex="1" parent="WIyWlLk6GJQsqaUBKTNV-1">
          <mxGeometry x="240" y="540" width="120" height="60" as="geometry" />
        </mxCell>
        <mxCell id="j3s3mRyFmVoYlKtFoy2Y-31" value="" style="endArrow=classic;html=1;rounded=0;exitX=0.5;exitY=1;exitDx=0;exitDy=0;" edge="1" parent="WIyWlLk6GJQsqaUBKTNV-1" source="j3s3mRyFmVoYlKtFoy2Y-29" target="j3s3mRyFmVoYlKtFoy2Y-32">
          <mxGeometry width="50" height="50" relative="1" as="geometry">
            <mxPoint x="110" y="600" as="sourcePoint" />
            <mxPoint x="300" y="640" as="targetPoint" />
          </mxGeometry>
        </mxCell>
        <mxCell id="j3s3mRyFmVoYlKtFoy2Y-32" value="Save Task to LocalStorage" style="rounded=0;whiteSpace=wrap;html=1;" vertex="1" parent="WIyWlLk6GJQsqaUBKTNV-1">
          <mxGeometry x="240" y="630" width="120" height="60" as="geometry" />
        </mxCell>
        <mxCell id="j3s3mRyFmVoYlKtFoy2Y-33" value="Update Views" style="rounded=0;whiteSpace=wrap;html=1;" vertex="1" parent="WIyWlLk6GJQsqaUBKTNV-1">
          <mxGeometry x="-40" y="630" width="120" height="60" as="geometry" />
        </mxCell>
        <mxCell id="j3s3mRyFmVoYlKtFoy2Y-34" value="" style="endArrow=classic;html=1;rounded=0;exitX=0;exitY=0.5;exitDx=0;exitDy=0;entryX=1;entryY=0.5;entryDx=0;entryDy=0;" edge="1" parent="WIyWlLk6GJQsqaUBKTNV-1" source="j3s3mRyFmVoYlKtFoy2Y-32" target="j3s3mRyFmVoYlKtFoy2Y-33">
          <mxGeometry width="50" height="50" relative="1" as="geometry">
            <mxPoint x="110" y="900" as="sourcePoint" />
            <mxPoint x="160" y="850" as="targetPoint" />
          </mxGeometry>
        </mxCell>
        <mxCell id="j3s3mRyFmVoYlKtFoy2Y-35" value="" style="endArrow=classic;html=1;rounded=0;exitX=0.5;exitY=1;exitDx=0;exitDy=0;" edge="1" parent="WIyWlLk6GJQsqaUBKTNV-1" source="j3s3mRyFmVoYlKtFoy2Y-33" target="j3s3mRyFmVoYlKtFoy2Y-36">
          <mxGeometry width="50" height="50" relative="1" as="geometry">
            <mxPoint x="110" y="700" as="sourcePoint" />
            <mxPoint x="70" y="740" as="targetPoint" />
          </mxGeometry>
        </mxCell>
        <mxCell id="j3s3mRyFmVoYlKtFoy2Y-36" value="Board view" style="rounded=0;whiteSpace=wrap;html=1;" vertex="1" parent="WIyWlLk6GJQsqaUBKTNV-1">
          <mxGeometry x="-40" y="710" width="120" height="60" as="geometry" />
        </mxCell>
        <mxCell id="j3s3mRyFmVoYlKtFoy2Y-37" value="" style="endArrow=classic;html=1;rounded=0;exitX=0;exitY=0.5;exitDx=0;exitDy=0;entryX=0;entryY=0.5;entryDx=0;entryDy=0;" edge="1" parent="WIyWlLk6GJQsqaUBKTNV-1" target="j3s3mRyFmVoYlKtFoy2Y-38">
          <mxGeometry width="50" height="50" relative="1" as="geometry">
            <mxPoint x="-40" y="654" as="sourcePoint" />
            <mxPoint x="20" y="1150" as="targetPoint" />
            <Array as="points">
              <mxPoint x="-350" y="654" />
              <mxPoint x="-350" y="1170" />
            </Array>
          </mxGeometry>
        </mxCell>
        <mxCell id="j3s3mRyFmVoYlKtFoy2Y-38" value="List view&amp;nbsp;" style="rounded=0;whiteSpace=wrap;html=1;" vertex="1" parent="WIyWlLk6GJQsqaUBKTNV-1">
          <mxGeometry x="50" y="1150" width="80" height="40" as="geometry" />
        </mxCell>
        <mxCell id="j3s3mRyFmVoYlKtFoy2Y-39" value="" style="endArrow=classic;html=1;rounded=0;exitX=0.5;exitY=1;exitDx=0;exitDy=0;" edge="1" parent="WIyWlLk6GJQsqaUBKTNV-1" source="j3s3mRyFmVoYlKtFoy2Y-36" target="j3s3mRyFmVoYlKtFoy2Y-40">
          <mxGeometry width="50" height="50" relative="1" as="geometry">
            <mxPoint x="110" y="700" as="sourcePoint" />
            <mxPoint x="20" y="840" as="targetPoint" />
          </mxGeometry>
        </mxCell>
        <mxCell id="j3s3mRyFmVoYlKtFoy2Y-40" value="User Actions" style="rhombus;whiteSpace=wrap;html=1;" vertex="1" parent="WIyWlLk6GJQsqaUBKTNV-1">
          <mxGeometry x="-30" y="800" width="100" height="100" as="geometry" />
        </mxCell>
        <mxCell id="j3s3mRyFmVoYlKtFoy2Y-41" value="Filter Tasks" style="rounded=0;whiteSpace=wrap;html=1;" vertex="1" parent="WIyWlLk6GJQsqaUBKTNV-1">
          <mxGeometry x="-300" y="940" width="80" height="30" as="geometry" />
        </mxCell>
        <mxCell id="j3s3mRyFmVoYlKtFoy2Y-42" value="Search Tasks" style="rounded=0;whiteSpace=wrap;html=1;" vertex="1" parent="WIyWlLk6GJQsqaUBKTNV-1">
          <mxGeometry x="-190" y="940" width="90" height="30" as="geometry" />
        </mxCell>
        <mxCell id="j3s3mRyFmVoYlKtFoy2Y-43" value="Sort Tasks" style="rounded=0;whiteSpace=wrap;html=1;" vertex="1" parent="WIyWlLk6GJQsqaUBKTNV-1">
          <mxGeometry x="-70" y="940" width="90" height="30" as="geometry" />
        </mxCell>
        <mxCell id="j3s3mRyFmVoYlKtFoy2Y-44" value="" style="endArrow=classic;html=1;rounded=0;entryX=0.5;entryY=0;entryDx=0;entryDy=0;" edge="1" parent="WIyWlLk6GJQsqaUBKTNV-1" source="j3s3mRyFmVoYlKtFoy2Y-40" target="j3s3mRyFmVoYlKtFoy2Y-41">
          <mxGeometry width="50" height="50" relative="1" as="geometry">
            <mxPoint x="110" y="700" as="sourcePoint" />
            <mxPoint x="160" y="650" as="targetPoint" />
          </mxGeometry>
        </mxCell>
        <mxCell id="j3s3mRyFmVoYlKtFoy2Y-54" value="Filter" style="edgeLabel;html=1;align=center;verticalAlign=middle;resizable=0;points=[];" connectable="0" vertex="1" parent="j3s3mRyFmVoYlKtFoy2Y-44">
          <mxGeometry x="0.3063" relative="1" as="geometry">
            <mxPoint as="offset" />
          </mxGeometry>
        </mxCell>
        <mxCell id="j3s3mRyFmVoYlKtFoy2Y-45" value="" style="endArrow=classic;html=1;rounded=0;exitX=0.18;exitY=0.71;exitDx=0;exitDy=0;exitPerimeter=0;entryX=0.5;entryY=0;entryDx=0;entryDy=0;" edge="1" parent="WIyWlLk6GJQsqaUBKTNV-1" source="j3s3mRyFmVoYlKtFoy2Y-40" target="j3s3mRyFmVoYlKtFoy2Y-42">
          <mxGeometry width="50" height="50" relative="1" as="geometry">
            <mxPoint x="110" y="700" as="sourcePoint" />
            <mxPoint x="160" y="650" as="targetPoint" />
          </mxGeometry>
        </mxCell>
        <mxCell id="j3s3mRyFmVoYlKtFoy2Y-55" value="Search" style="edgeLabel;html=1;align=center;verticalAlign=middle;resizable=0;points=[];" connectable="0" vertex="1" parent="j3s3mRyFmVoYlKtFoy2Y-45">
          <mxGeometry x="0.2122" y="1" relative="1" as="geometry">
            <mxPoint as="offset" />
          </mxGeometry>
        </mxCell>
        <mxCell id="j3s3mRyFmVoYlKtFoy2Y-46" value="" style="endArrow=classic;html=1;rounded=0;exitX=0.33;exitY=0.83;exitDx=0;exitDy=0;exitPerimeter=0;entryX=0.5;entryY=0;entryDx=0;entryDy=0;" edge="1" parent="WIyWlLk6GJQsqaUBKTNV-1" source="j3s3mRyFmVoYlKtFoy2Y-40" target="j3s3mRyFmVoYlKtFoy2Y-43">
          <mxGeometry width="50" height="50" relative="1" as="geometry">
            <mxPoint x="110" y="700" as="sourcePoint" />
            <mxPoint x="160" y="650" as="targetPoint" />
          </mxGeometry>
        </mxCell>
        <mxCell id="j3s3mRyFmVoYlKtFoy2Y-56" value="Sort" style="edgeLabel;html=1;align=center;verticalAlign=middle;resizable=0;points=[];" connectable="0" vertex="1" parent="j3s3mRyFmVoYlKtFoy2Y-46">
          <mxGeometry x="0.0568" y="2" relative="1" as="geometry">
            <mxPoint as="offset" />
          </mxGeometry>
        </mxCell>
        <mxCell id="j3s3mRyFmVoYlKtFoy2Y-47" value="Render Filtered Tasks" style="rounded=0;whiteSpace=wrap;html=1;" vertex="1" parent="WIyWlLk6GJQsqaUBKTNV-1">
          <mxGeometry x="-215" y="1010" width="215" height="40" as="geometry" />
        </mxCell>
        <mxCell id="j3s3mRyFmVoYlKtFoy2Y-48" value="" style="endArrow=classic;html=1;rounded=0;exitX=0.5;exitY=1;exitDx=0;exitDy=0;entryX=0.321;entryY=0;entryDx=0;entryDy=0;entryPerimeter=0;" edge="1" parent="WIyWlLk6GJQsqaUBKTNV-1" source="j3s3mRyFmVoYlKtFoy2Y-41" target="j3s3mRyFmVoYlKtFoy2Y-47">
          <mxGeometry width="50" height="50" relative="1" as="geometry">
            <mxPoint x="110" y="700" as="sourcePoint" />
            <mxPoint x="160" y="650" as="targetPoint" />
          </mxGeometry>
        </mxCell>
        <mxCell id="j3s3mRyFmVoYlKtFoy2Y-49" value="" style="endArrow=classic;html=1;rounded=0;exitX=0.5;exitY=1;exitDx=0;exitDy=0;entryX=0.5;entryY=0;entryDx=0;entryDy=0;" edge="1" parent="WIyWlLk6GJQsqaUBKTNV-1" source="j3s3mRyFmVoYlKtFoy2Y-42" target="j3s3mRyFmVoYlKtFoy2Y-47">
          <mxGeometry width="50" height="50" relative="1" as="geometry">
            <mxPoint x="110" y="700" as="sourcePoint" />
            <mxPoint x="160" y="650" as="targetPoint" />
          </mxGeometry>
        </mxCell>
        <mxCell id="j3s3mRyFmVoYlKtFoy2Y-50" value="" style="endArrow=classic;html=1;rounded=0;exitX=0.5;exitY=1;exitDx=0;exitDy=0;" edge="1" parent="WIyWlLk6GJQsqaUBKTNV-1" source="j3s3mRyFmVoYlKtFoy2Y-43" target="j3s3mRyFmVoYlKtFoy2Y-47">
          <mxGeometry width="50" height="50" relative="1" as="geometry">
            <mxPoint x="40" y="1020" as="sourcePoint" />
            <mxPoint x="225" y="700" as="targetPoint" />
          </mxGeometry>
        </mxCell>
        <mxCell id="j3s3mRyFmVoYlKtFoy2Y-51" value="" style="endArrow=classic;html=1;rounded=0;exitX=1;exitY=0.5;exitDx=0;exitDy=0;entryX=1;entryY=0.5;entryDx=0;entryDy=0;" edge="1" parent="WIyWlLk6GJQsqaUBKTNV-1" source="j3s3mRyFmVoYlKtFoy2Y-47" target="j3s3mRyFmVoYlKtFoy2Y-36">
          <mxGeometry width="50" height="50" relative="1" as="geometry">
            <mxPoint x="20" y="1030" as="sourcePoint" />
            <mxPoint x="100" y="740" as="targetPoint" />
            <Array as="points">
              <mxPoint x="120" y="1030" />
              <mxPoint x="120" y="740" />
            </Array>
          </mxGeometry>
        </mxCell>
        <mxCell id="j3s3mRyFmVoYlKtFoy2Y-52" value="" style="endArrow=classic;html=1;rounded=0;exitX=0.5;exitY=0;exitDx=0;exitDy=0;entryX=1;entryY=0.5;entryDx=0;entryDy=0;" edge="1" parent="WIyWlLk6GJQsqaUBKTNV-1" source="j3s3mRyFmVoYlKtFoy2Y-38" target="j3s3mRyFmVoYlKtFoy2Y-40">
          <mxGeometry width="50" height="50" relative="1" as="geometry">
            <mxPoint x="110" y="700" as="sourcePoint" />
            <mxPoint x="160" y="650" as="targetPoint" />
            <Array as="points">
              <mxPoint x="90" y="850" />
            </Array>
          </mxGeometry>
        </mxCell>
        <mxCell id="j3s3mRyFmVoYlKtFoy2Y-53" value="Edit Task Flow" style="rounded=0;whiteSpace=wrap;html=1;" vertex="1" parent="WIyWlLk6GJQsqaUBKTNV-1">
          <mxGeometry x="150" y="940" width="120" height="30" as="geometry" />
        </mxCell>
        <mxCell id="j3s3mRyFmVoYlKtFoy2Y-57" value="Delete Task Flow" style="rounded=0;whiteSpace=wrap;html=1;" vertex="1" parent="WIyWlLk6GJQsqaUBKTNV-1">
          <mxGeometry x="320" y="940" width="120" height="30" as="geometry" />
        </mxCell>
        <mxCell id="j3s3mRyFmVoYlKtFoy2Y-58" value="" style="endArrow=classic;html=1;rounded=0;exitX=0.67;exitY=0.82;exitDx=0;exitDy=0;exitPerimeter=0;entryX=0.358;entryY=-0.033;entryDx=0;entryDy=0;entryPerimeter=0;" edge="1" parent="WIyWlLk6GJQsqaUBKTNV-1" source="j3s3mRyFmVoYlKtFoy2Y-40" target="j3s3mRyFmVoYlKtFoy2Y-53">
          <mxGeometry width="50" height="50" relative="1" as="geometry">
            <mxPoint x="30" y="880" as="sourcePoint" />
            <mxPoint x="165.96000000000004" y="934" as="targetPoint" />
          </mxGeometry>
        </mxCell>
        <mxCell id="j3s3mRyFmVoYlKtFoy2Y-60" value="Edit" style="edgeLabel;html=1;align=center;verticalAlign=middle;resizable=0;points=[];" connectable="0" vertex="1" parent="j3s3mRyFmVoYlKtFoy2Y-58">
          <mxGeometry x="0.3379" relative="1" as="geometry">
            <mxPoint x="-1" y="1" as="offset" />
          </mxGeometry>
        </mxCell>
        <mxCell id="j3s3mRyFmVoYlKtFoy2Y-59" value="" style="endArrow=classic;html=1;rounded=0;exitX=0.86;exitY=0.67;exitDx=0;exitDy=0;exitPerimeter=0;entryX=0.45;entryY=0.033;entryDx=0;entryDy=0;entryPerimeter=0;" edge="1" parent="WIyWlLk6GJQsqaUBKTNV-1" source="j3s3mRyFmVoYlKtFoy2Y-40" target="j3s3mRyFmVoYlKtFoy2Y-57">
          <mxGeometry width="50" height="50" relative="1" as="geometry">
            <mxPoint x="110" y="700" as="sourcePoint" />
            <mxPoint x="160" y="650" as="targetPoint" />
          </mxGeometry>
        </mxCell>
        <mxCell id="j3s3mRyFmVoYlKtFoy2Y-61" value="Delete" style="edgeLabel;html=1;align=center;verticalAlign=middle;resizable=0;points=[];" connectable="0" vertex="1" parent="j3s3mRyFmVoYlKtFoy2Y-59">
          <mxGeometry x="0.2631" y="1" relative="1" as="geometry">
            <mxPoint as="offset" />
          </mxGeometry>
        </mxCell>
        <mxCell id="j3s3mRyFmVoYlKtFoy2Y-62" value="" style="endArrow=classic;html=1;rounded=0;exitX=0.5;exitY=1;exitDx=0;exitDy=0;" edge="1" parent="WIyWlLk6GJQsqaUBKTNV-1" source="j3s3mRyFmVoYlKtFoy2Y-53" target="j3s3mRyFmVoYlKtFoy2Y-63">
          <mxGeometry width="50" height="50" relative="1" as="geometry">
            <mxPoint x="180" y="980" as="sourcePoint" />
            <mxPoint x="190" y="1010" as="targetPoint" />
          </mxGeometry>
        </mxCell>
        <mxCell id="j3s3mRyFmVoYlKtFoy2Y-63" value="Open Edit Modal" style="rounded=0;whiteSpace=wrap;html=1;" vertex="1" parent="WIyWlLk6GJQsqaUBKTNV-1">
          <mxGeometry x="150" y="1050" width="120" height="40" as="geometry" />
        </mxCell>
        <mxCell id="j3s3mRyFmVoYlKtFoy2Y-64" value="" style="endArrow=classic;html=1;rounded=0;exitX=0.5;exitY=1;exitDx=0;exitDy=0;" edge="1" parent="WIyWlLk6GJQsqaUBKTNV-1" source="j3s3mRyFmVoYlKtFoy2Y-63" target="j3s3mRyFmVoYlKtFoy2Y-65">
          <mxGeometry width="50" height="50" relative="1" as="geometry">
            <mxPoint x="110" y="700" as="sourcePoint" />
            <mxPoint x="210" y="1140" as="targetPoint" />
          </mxGeometry>
        </mxCell>
        <mxCell id="j3s3mRyFmVoYlKtFoy2Y-65" value="Populate Edit Form" style="rounded=0;whiteSpace=wrap;html=1;" vertex="1" parent="WIyWlLk6GJQsqaUBKTNV-1">
          <mxGeometry x="150" y="1150" width="120" height="40" as="geometry" />
        </mxCell>
        <mxCell id="j3s3mRyFmVoYlKtFoy2Y-66" value="" style="endArrow=classic;html=1;rounded=0;exitX=0.5;exitY=1;exitDx=0;exitDy=0;" edge="1" parent="WIyWlLk6GJQsqaUBKTNV-1" source="j3s3mRyFmVoYlKtFoy2Y-65" target="j3s3mRyFmVoYlKtFoy2Y-67">
          <mxGeometry width="50" height="50" relative="1" as="geometry">
            <mxPoint x="110" y="1300" as="sourcePoint" />
            <mxPoint x="210" y="1220" as="targetPoint" />
          </mxGeometry>
        </mxCell>
        <mxCell id="j3s3mRyFmVoYlKtFoy2Y-67" value="Validate Edit&amp;nbsp;&lt;div&gt;input&lt;/div&gt;" style="rhombus;whiteSpace=wrap;html=1;" vertex="1" parent="WIyWlLk6GJQsqaUBKTNV-1">
          <mxGeometry x="155" y="1220" width="110" height="100" as="geometry" />
        </mxCell>
        <mxCell id="j3s3mRyFmVoYlKtFoy2Y-68" value="" style="endArrow=classic;html=1;rounded=0;exitX=1;exitY=0.5;exitDx=0;exitDy=0;" edge="1" parent="WIyWlLk6GJQsqaUBKTNV-1" source="j3s3mRyFmVoYlKtFoy2Y-67" target="j3s3mRyFmVoYlKtFoy2Y-69">
          <mxGeometry width="50" height="50" relative="1" as="geometry">
            <mxPoint x="110" y="1200" as="sourcePoint" />
            <mxPoint x="320" y="1270" as="targetPoint" />
          </mxGeometry>
        </mxCell>
        <mxCell id="j3s3mRyFmVoYlKtFoy2Y-70" value="Invalid" style="edgeLabel;html=1;align=center;verticalAlign=middle;resizable=0;points=[];" connectable="0" vertex="1" parent="j3s3mRyFmVoYlKtFoy2Y-68">
          <mxGeometry x="-0.2923" y="1" relative="1" as="geometry">
            <mxPoint as="offset" />
          </mxGeometry>
        </mxCell>
        <mxCell id="j3s3mRyFmVoYlKtFoy2Y-69" value="show Error" style="rounded=0;whiteSpace=wrap;html=1;" vertex="1" parent="WIyWlLk6GJQsqaUBKTNV-1">
          <mxGeometry x="340" y="1255" width="120" height="30" as="geometry" />
        </mxCell>
        <mxCell id="j3s3mRyFmVoYlKtFoy2Y-71" value="" style="endArrow=classic;html=1;rounded=0;exitX=0.5;exitY=0;exitDx=0;exitDy=0;entryX=1;entryY=0.5;entryDx=0;entryDy=0;" edge="1" parent="WIyWlLk6GJQsqaUBKTNV-1" source="j3s3mRyFmVoYlKtFoy2Y-69" target="j3s3mRyFmVoYlKtFoy2Y-65">
          <mxGeometry width="50" height="50" relative="1" as="geometry">
            <mxPoint x="110" y="1200" as="sourcePoint" />
            <mxPoint x="160" y="1150" as="targetPoint" />
            <Array as="points">
              <mxPoint x="400" y="1170" />
            </Array>
          </mxGeometry>
        </mxCell>
        <mxCell id="j3s3mRyFmVoYlKtFoy2Y-72" value="" style="endArrow=classic;html=1;rounded=0;exitX=0.5;exitY=1;exitDx=0;exitDy=0;" edge="1" parent="WIyWlLk6GJQsqaUBKTNV-1" source="j3s3mRyFmVoYlKtFoy2Y-57" target="j3s3mRyFmVoYlKtFoy2Y-73">
          <mxGeometry width="50" height="50" relative="1" as="geometry">
            <mxPoint x="110" y="1200" as="sourcePoint" />
            <mxPoint x="380" y="1020" as="targetPoint" />
          </mxGeometry>
        </mxCell>
        <mxCell id="j3s3mRyFmVoYlKtFoy2Y-73" value="Confirm Delete" style="rhombus;whiteSpace=wrap;html=1;" vertex="1" parent="WIyWlLk6GJQsqaUBKTNV-1">
          <mxGeometry x="320" y="1000" width="120" height="110" as="geometry" />
        </mxCell>
        <mxCell id="j3s3mRyFmVoYlKtFoy2Y-74" value="Delete Task" style="rounded=0;whiteSpace=wrap;html=1;" vertex="1" parent="WIyWlLk6GJQsqaUBKTNV-1">
          <mxGeometry x="480" y="1150" width="120" height="40" as="geometry" />
        </mxCell>
        <mxCell id="j3s3mRyFmVoYlKtFoy2Y-75" value="" style="endArrow=classic;html=1;rounded=0;exitX=0.5;exitY=1;exitDx=0;exitDy=0;entryX=0.5;entryY=0;entryDx=0;entryDy=0;" edge="1" parent="WIyWlLk6GJQsqaUBKTNV-1" source="j3s3mRyFmVoYlKtFoy2Y-73" target="j3s3mRyFmVoYlKtFoy2Y-74">
          <mxGeometry width="50" height="50" relative="1" as="geometry">
            <mxPoint x="110" y="800" as="sourcePoint" />
            <mxPoint x="160" y="750" as="targetPoint" />
            <Array as="points">
              <mxPoint x="380" y="1130" />
              <mxPoint x="540" y="1130" />
            </Array>
          </mxGeometry>
        </mxCell>
        <mxCell id="j3s3mRyFmVoYlKtFoy2Y-76" value="Yes" style="edgeLabel;html=1;align=center;verticalAlign=middle;resizable=0;points=[];" connectable="0" vertex="1" parent="j3s3mRyFmVoYlKtFoy2Y-75">
          <mxGeometry x="-0.02" relative="1" as="geometry">
            <mxPoint as="offset" />
          </mxGeometry>
        </mxCell>
        <mxCell id="j3s3mRyFmVoYlKtFoy2Y-77" value="Cancel Deletion" style="rounded=0;whiteSpace=wrap;html=1;" vertex="1" parent="WIyWlLk6GJQsqaUBKTNV-1">
          <mxGeometry x="630" y="1150" width="120" height="40" as="geometry" />
        </mxCell>
        <mxCell id="j3s3mRyFmVoYlKtFoy2Y-78" value="" style="endArrow=classic;html=1;rounded=0;exitX=1;exitY=0.5;exitDx=0;exitDy=0;entryX=0.5;entryY=0;entryDx=0;entryDy=0;" edge="1" parent="WIyWlLk6GJQsqaUBKTNV-1" source="j3s3mRyFmVoYlKtFoy2Y-73" target="j3s3mRyFmVoYlKtFoy2Y-77">
          <mxGeometry width="50" height="50" relative="1" as="geometry">
            <mxPoint x="110" y="800" as="sourcePoint" />
            <mxPoint x="160" y="750" as="targetPoint" />
            <Array as="points">
              <mxPoint x="690" y="1055" />
            </Array>
          </mxGeometry>
        </mxCell>
        <mxCell id="j3s3mRyFmVoYlKtFoy2Y-79" value="No" style="edgeLabel;html=1;align=center;verticalAlign=middle;resizable=0;points=[];" connectable="0" vertex="1" parent="j3s3mRyFmVoYlKtFoy2Y-78">
          <mxGeometry x="-0.2232" relative="1" as="geometry">
            <mxPoint as="offset" />
          </mxGeometry>
        </mxCell>
        <mxCell id="j3s3mRyFmVoYlKtFoy2Y-89" value="No" style="edgeLabel;html=1;align=center;verticalAlign=middle;resizable=0;points=[];" connectable="0" vertex="1" parent="j3s3mRyFmVoYlKtFoy2Y-78">
          <mxGeometry x="-0.2174" y="-4" relative="1" as="geometry">
            <mxPoint y="-1" as="offset" />
          </mxGeometry>
        </mxCell>
        <mxCell id="j3s3mRyFmVoYlKtFoy2Y-80" value="" style="endArrow=classic;html=1;rounded=0;exitX=0.658;exitY=-0.1;exitDx=0;exitDy=0;exitPerimeter=0;entryX=1;entryY=0.5;entryDx=0;entryDy=0;" edge="1" parent="WIyWlLk6GJQsqaUBKTNV-1" source="j3s3mRyFmVoYlKtFoy2Y-74" target="j3s3mRyFmVoYlKtFoy2Y-32">
          <mxGeometry width="50" height="50" relative="1" as="geometry">
            <mxPoint x="110" y="800" as="sourcePoint" />
            <mxPoint x="160" y="750" as="targetPoint" />
            <Array as="points">
              <mxPoint x="559" y="660" />
            </Array>
          </mxGeometry>
        </mxCell>
        <mxCell id="j3s3mRyFmVoYlKtFoy2Y-88" value="&lt;font style=&quot;font-size: 13px;&quot;&gt;Update&lt;/font&gt;" style="edgeLabel;html=1;align=center;verticalAlign=middle;resizable=0;points=[];" connectable="0" vertex="1" parent="j3s3mRyFmVoYlKtFoy2Y-80">
          <mxGeometry x="-0.235" y="-1" relative="1" as="geometry">
            <mxPoint as="offset" />
          </mxGeometry>
        </mxCell>
        <mxCell id="j3s3mRyFmVoYlKtFoy2Y-81" value="Update Task" style="rounded=0;whiteSpace=wrap;html=1;" vertex="1" parent="WIyWlLk6GJQsqaUBKTNV-1">
          <mxGeometry x="570" y="1320" width="120" height="60" as="geometry" />
        </mxCell>
        <mxCell id="j3s3mRyFmVoYlKtFoy2Y-82" value="" style="endArrow=classic;html=1;rounded=0;exitX=0.5;exitY=1;exitDx=0;exitDy=0;entryX=0;entryY=0.5;entryDx=0;entryDy=0;" edge="1" parent="WIyWlLk6GJQsqaUBKTNV-1" source="j3s3mRyFmVoYlKtFoy2Y-67" target="j3s3mRyFmVoYlKtFoy2Y-81">
          <mxGeometry width="50" height="50" relative="1" as="geometry">
            <mxPoint x="110" y="1100" as="sourcePoint" />
            <mxPoint x="160" y="1050" as="targetPoint" />
            <Array as="points">
              <mxPoint x="210" y="1350" />
            </Array>
          </mxGeometry>
        </mxCell>
        <mxCell id="j3s3mRyFmVoYlKtFoy2Y-83" value="valid" style="edgeLabel;html=1;align=center;verticalAlign=middle;resizable=0;points=[];" connectable="0" vertex="1" parent="j3s3mRyFmVoYlKtFoy2Y-82">
          <mxGeometry x="-0.1179" y="-2" relative="1" as="geometry">
            <mxPoint as="offset" />
          </mxGeometry>
        </mxCell>
        <mxCell id="j3s3mRyFmVoYlKtFoy2Y-86" value="" style="endArrow=classic;html=1;rounded=0;exitX=0.425;exitY=0.017;exitDx=0;exitDy=0;exitPerimeter=0;entryX=0.5;entryY=1;entryDx=0;entryDy=0;" edge="1" parent="WIyWlLk6GJQsqaUBKTNV-1" source="j3s3mRyFmVoYlKtFoy2Y-81" target="j3s3mRyFmVoYlKtFoy2Y-32">
          <mxGeometry width="50" height="50" relative="1" as="geometry">
            <mxPoint x="110" y="1100" as="sourcePoint" />
            <mxPoint x="160" y="1050" as="targetPoint" />
            <Array as="points">
              <mxPoint x="620" y="760" />
              <mxPoint x="300" y="760" />
            </Array>
          </mxGeometry>
        </mxCell>
        <mxCell id="j3s3mRyFmVoYlKtFoy2Y-87" value="&lt;font style=&quot;font-size: 13px;&quot;&gt;Update&lt;/font&gt;" style="edgeLabel;html=1;align=center;verticalAlign=middle;resizable=0;points=[];" connectable="0" vertex="1" parent="j3s3mRyFmVoYlKtFoy2Y-86">
          <mxGeometry x="-0.2597" relative="1" as="geometry">
            <mxPoint as="offset" />
          </mxGeometry>
        </mxCell>
      </root>
    </mxGraphModel>
  </diagram>
</mxfile>
